<svg xmlns="http://www.w3.org/2000/svg" viewBox="0 0 320 180" width="1920" height="1080" shape-rendering="crispEdges"><g><rect x="262" y="14" width="1" height="1" fill="#1f3470"/><rect x="257" y="15" width="11" height="1" fill="#1f3470"/><rect x="255" y="16" width="15" height="1" fill="#1f3470"/><rect x="253" y="17" width="9" height="1" fill="#1f3470"/><rect x="262" y="17" width="1" height="1" fill="#27407e"/><rect x="263" y="17" width="9" height="1" fill="#1f3470"/><rect x="252" y="18" width="5" height="1" fill="#1f3470"/><rect x="257" y="18" width="11" height="1" fill="#27407e"/><rect x="268" y="18" width="5" height="1" fill="#1f3470"/><rect x="251" y="19" width="5" height="1" fill="#1f3470"/><rect x="256" y="19" width="13" height="1" fill="#27407e"/><rect x="269" y="19" width="5" height="1" fill="#1f3470"/><rect x="250" y="20" width="4" height="1" fill="#1f3470"/><rect x="254" y="20" width="17" height="1" fill="#27407e"/><rect x="271" y="20" width="4" height="1" fill="#1f3470"/><rect x="249" y="21" width="4" height="1" fill="#1f3470"/><rect x="253" y="21" width="19" height="1" fill="#27407e"/><rect x="272" y="21" width="4" height="1" fill="#1f3470"/><rect x="249" y="22" width="3" height="1" fill="#1f3470"/><rect x="252" y="22" width="21" height="1" fill="#27407e"/><rect x="273" y="22" width="3" height="1" fill="#1f3470"/><rect x="248" y="23" width="4" height="1" fill="#1f3470"/><rect x="252" y="23" width="21" height="1" fill="#27407e"/><rect x="273" y="23" width="4" height="1" fill="#1f3470"/><rect x="248" y="24" width="3" height="1" fill="#1f3470"/><rect x="251" y="24" width="23" height="1" fill="#27407e"/><rect x="274" y="24" width="3" height="1" fill="#1f3470"/><rect x="247" y="25" width="3" height="1" fill="#1f3470"/><rect x="250" y="25" width="25" height="1" fill="#27407e"/><rect x="275" y="25" width="3" height="1" fill="#1f3470"/><rect x="247" y="26" width="3" height="1" fill="#1f3470"/><rect x="250" y="26" width="25" height="1" fill="#27407e"/><rect x="275" y="26" width="3" height="1" fill="#1f3470"/><rect x="247" y="27" width="3" height="1" fill="#1f3470"/><rect x="250" y="27" width="25" height="1" fill="#27407e"/><rect x="275" y="27" width="3" height="1" fill="#1f3470"/><rect x="247" y="28" width="3" height="1" fill="#1f3470"/><rect x="250" y="28" width="25" height="1" fill="#27407e"/><rect x="275" y="28" width="3" height="1" fill="#1f3470"/><rect x="247" y="29" width="3" height="1" fill="#1f3470"/><rect x="250" y="29" width="25" height="1" fill="#27407e"/><rect x="275" y="29" width="3" height="1" fill="#1f3470"/><rect x="246" y="30" width="3" height="1" fill="#1f3470"/><rect x="249" y="30" width="27" height="1" fill="#27407e"/><rect x="276" y="30" width="3" height="1" fill="#1f3470"/><rect x="247" y="31" width="3" height="1" fill="#1f3470"/><rect x="250" y="31" width="25" height="1" fill="#27407e"/><rect x="275" y="31" width="3" height="1" fill="#1f3470"/><rect x="247" y="32" width="3" height="1" fill="#1f3470"/><rect x="250" y="32" width="25" height="1" fill="#27407e"/><rect x="275" y="32" width="3" height="1" fill="#1f3470"/><rect x="247" y="33" width="3" height="1" fill="#1f3470"/><rect x="250" y="33" width="25" height="1" fill="#27407e"/><rect x="275" y="33" width="3" height="1" fill="#1f3470"/><rect x="247" y="34" width="3" height="1" fill="#1f3470"/><rect x="250" y="34" width="25" height="1" fill="#27407e"/><rect x="275" y="34" width="3" height="1" fill="#1f3470"/><rect x="247" y="35" width="3" height="1" fill="#1f3470"/><rect x="250" y="35" width="25" height="1" fill="#27407e"/><rect x="275" y="35" width="3" height="1" fill="#1f3470"/><rect x="248" y="36" width="3" height="1" fill="#1f3470"/><rect x="251" y="36" width="23" height="1" fill="#27407e"/><rect x="274" y="36" width="3" height="1" fill="#1f3470"/><rect x="248" y="37" width="4" height="1" fill="#1f3470"/><rect x="252" y="37" width="21" height="1" fill="#27407e"/><rect x="273" y="37" width="4" height="1" fill="#1f3470"/><rect x="249" y="38" width="3" height="1" fill="#1f3470"/><rect x="252" y="38" width="21" height="1" fill="#27407e"/><rect x="273" y="38" width="3" height="1" fill="#1f3470"/><rect x="249" y="39" width="4" height="1" fill="#1f3470"/><rect x="253" y="39" width="19" height="1" fill="#27407e"/><rect x="272" y="39" width="4" height="1" fill="#1f3470"/><rect x="250" y="40" width="4" height="1" fill="#1f3470"/><rect x="254" y="40" width="17" height="1" fill="#27407e"/><rect x="271" y="40" width="4" height="1" fill="#1f3470"/><rect x="251" y="41" width="5" height="1" fill="#1f3470"/><rect x="256" y="41" width="13" height="1" fill="#27407e"/><rect x="269" y="41" width="5" height="1" fill="#1f3470"/><rect x="252" y="42" width="5" height="1" fill="#1f3470"/><rect x="257" y="42" width="11" height="1" fill="#27407e"/><rect x="268" y="42" width="5" height="1" fill="#1f3470"/><rect x="253" y="43" width="9" height="1" fill="#1f3470"/><rect x="262" y="43" width="1" height="1" fill="#27407e"/><rect x="263" y="43" width="9" height="1" fill="#1f3470"/><rect x="255" y="44" width="15" height="1" fill="#1f3470"/><rect x="257" y="45" width="11" height="1" fill="#1f3470"/><rect x="262" y="46" width="1" height="1" fill="#1f3470"/></g><g><rect x="264" y="20" width="3" height="1" fill="#f3e6b8"/><rect x="265" y="21" width="1" height="1" fill="#f3e6b8"/><rect x="266" y="21" width="1" height="1" fill="#d9c98f"/><rect x="267" y="21" width="2" height="1" fill="#f3e6b8"/><rect x="265" y="22" width="1" height="1" fill="#d9c98f"/><rect x="266" y="22" width="4" height="1" fill="#f3e6b8"/><rect x="266" y="23" width="4" height="1" fill="#f3e6b8"/><rect x="270" y="23" width="1" height="1" fill="#fff6d6"/><rect x="266" y="24" width="4" height="1" fill="#f3e6b8"/><rect x="270" y="24" width="2" height="1" fill="#fff6d6"/><rect x="266" y="25" width="3" height="1" fill="#f3e6b8"/><rect x="269" y="25" width="1" height="1" fill="#d9c98f"/><rect x="270" y="25" width="2" height="1" fill="#fff6d6"/><rect x="266" y="26" width="2" height="1" fill="#f3e6b8"/><rect x="268" y="26" width="1" height="1" fill="#d9c98f"/><rect x="269" y="26" width="1" height="1" fill="#f3e6b8"/><rect x="270" y="26" width="3" height="1" fill="#fff6d6"/><rect x="267" y="27" width="1" height="1" fill="#d9c98f"/><rect x="268" y="27" width="2" height="1" fill="#f3e6b8"/><rect x="270" y="27" width="3" height="1" fill="#fff6d6"/><rect x="266" y="28" width="1" height="1" fill="#d9c98f"/><rect x="267" y="28" width="3" height="1" fill="#f3e6b8"/><rect x="270" y="28" width="3" height="1" fill="#fff6d6"/><rect x="266" y="29" width="4" height="1" fill="#f3e6b8"/><rect x="270" y="29" width="3" height="1" fill="#fff6d6"/><rect x="266" y="30" width="4" height="1" fill="#f3e6b8"/><rect x="270" y="30" width="4" height="1" fill="#fff6d6"/><rect x="266" y="31" width="4" height="1" fill="#f3e6b8"/><rect x="270" y="31" width="3" height="1" fill="#fff6d6"/><rect x="265" y="32" width="4" height="1" fill="#f3e6b8"/><rect x="269" y="32" width="1" height="1" fill="#d9c98f"/><rect x="270" y="32" width="3" height="1" fill="#fff6d6"/><rect x="265" y="33" width="3" height="1" fill="#f3e6b8"/><rect x="268" y="33" width="1" height="1" fill="#d9c98f"/><rect x="269" y="33" width="1" height="1" fill="#f3e6b8"/><rect x="270" y="33" width="3" height="1" fill="#fff6d6"/><rect x="264" y="34" width="3" height="1" fill="#f3e6b8"/><rect x="267" y="34" width="1" height="1" fill="#d9c98f"/><rect x="268" y="34" width="2" height="1" fill="#f3e6b8"/><rect x="270" y="34" width="3" height="1" fill="#fff6d6"/><rect x="263" y="35" width="3" height="1" fill="#f3e6b8"/><rect x="266" y="35" width="1" height="1" fill="#d9c98f"/><rect x="267" y="35" width="3" height="1" fill="#f3e6b8"/><rect x="270" y="35" width="2" height="1" fill="#fff6d6"/><rect x="261" y="36" width="4" height="1" fill="#f3e6b8"/><rect x="265" y="36" width="1" height="1" fill="#d9c98f"/><rect x="266" y="36" width="4" height="1" fill="#f3e6b8"/><rect x="270" y="36" width="2" height="1" fill="#fff6d6"/><rect x="254" y="37" width="2" height="1" fill="#f3e6b8"/><rect x="257" y="37" width="1" height="1" fill="#d9c98f"/><rect x="258" y="37" width="6" height="1" fill="#f3e6b8"/><rect x="264" y="37" width="1" height="1" fill="#d9c98f"/><rect x="265" y="37" width="5" height="1" fill="#f3e6b8"/><rect x="270" y="37" width="1" height="1" fill="#fff6d6"/><rect x="255" y="38" width="1" height="1" fill="#f3e6b8"/><rect x="256" y="38" width="1" height="1" fill="#d9c98f"/><rect x="257" y="38" width="6" height="1" fill="#f3e6b8"/><rect x="263" y="38" width="1" height="1" fill="#d9c98f"/><rect x="264" y="38" width="6" height="1" fill="#f3e6b8"/><rect x="256" y="39" width="6" height="1" fill="#f3e6b8"/><rect x="262" y="39" width="1" height="1" fill="#d9c98f"/><rect x="263" y="39" width="6" height="1" fill="#f3e6b8"/><rect x="258" y="40" width="3" height="1" fill="#f3e6b8"/><rect x="261" y="40" width="1" height="1" fill="#d9c98f"/><rect x="262" y="40" width="5" height="1" fill="#f3e6b8"/><rect x="262" y="41" width="1" height="1" fill="#f3e6b8"/></g></svg>