<svg xmlns="http://www.w3.org/2000/svg" viewBox="0 0 320 180" width="1920" height="1080" shape-rendering="crispEdges"><rect x="98" y="6" width="1" height="1" fill="#8fd0ff"/><rect x="97" y="7" width="3" height="1" fill="#8fd0ff"/><rect x="98" y="8" width="1" height="1" fill="#8fd0ff"/><rect x="184" y="20" width="1" height="1" fill="#8fd0ff"/><rect x="248" y="23" width="1" height="1" fill="#8fd0ff"/><rect x="280" y="27" width="1" height="1" fill="#8fd0ff"/><rect x="233" y="29" width="1" height="1" fill="#ffffff"/><rect x="232" y="30" width="3" height="1" fill="#ffffff"/><rect x="233" y="31" width="1" height="1" fill="#ffffff"/><rect x="267" y="43" width="1" height="1" fill="#ffe28a"/><rect x="111" y="44" width="1" height="1" fill="#8fd0ff"/><rect x="286" y="48" width="1" height="1" fill="#ffe28a"/><rect x="144" y="54" width="1" height="1" fill="#ffe28a"/><rect x="91" y="56" width="1" height="1" fill="#ffffff"/><rect x="257" y="57" width="1" height="1" fill="#ffe28a"/><rect x="47" y="68" width="1" height="1" fill="#8fd0ff"/><rect x="24" y="80" width="1" height="1" fill="#8fd0ff"/><rect x="7" y="81" width="1" height="1" fill="#5aa8ff"/><rect x="118" y="90" width="1" height="1" fill="#5aa8ff"/><rect x="19" y="95" width="1" height="1" fill="#ffffff"/><rect x="138" y="98" width="1" height="1" fill="#ffe28a"/><rect x="96" y="102" width="1" height="1" fill="#ffe28a"/><rect x="42" y="103" width="1" height="1" fill="#ffe28a"/><rect x="95" y="103" width="3" height="1" fill="#ffe28a"/><rect x="96" y="104" width="1" height="1" fill="#ffe28a"/><rect x="60" y="121" width="1" height="1" fill="#5aa8ff"/><rect x="228" y="121" width="1" height="1" fill="#ffffff"/><rect x="288" y="125" width="1" height="1" fill="#5aa8ff"/><rect x="25" y="138" width="1" height="1" fill="#ffffff"/><rect x="114" y="144" width="1" height="1" fill="#5aa8ff"/><rect x="114" y="154" width="1" height="1" fill="#5aa8ff"/><rect x="28" y="161" width="1" height="1" fill="#ffffff"/><rect x="190" y="172" width="1" height="1" fill="#ffe28a"/><rect x="170" y="173" width="1" height="1" fill="#8fd0ff"/><rect x="263" y="175" width="1" height="1" fill="#ffe28a"/><rect x="94" y="176" width="1" height="1" fill="#ffffff"/><rect x="93" y="177" width="3" height="1" fill="#ffffff"/><rect x="94" y="178" width="1" height="1" fill="#ffffff"/></svg>